<svg xmlns="http://www.w3.org/2000/svg" width="10" height="10" viewBox="0 0 10 10">
  <path id="Icon_awesome-expand-arrows-alt" data-name="Icon awesome-expand-arrows-alt" d="M10,9.214v2.5a.534.534,0,0,1-.536.536h-2.5a.536.536,0,0,1-.379-.915l.808-.808L5,8.134l-2.394,2.4.809.806a.536.536,0,0,1-.379.915H.536A.534.534,0,0,1,0,11.714v-2.5a.536.536,0,0,1,.915-.379l.808.808L4.117,7.25l-2.395-2.4-.808.81A.536.536,0,0,1,0,5.286v-2.5A.534.534,0,0,1,.536,2.25h2.5a.536.536,0,0,1,.379.915l-.808.808L5,6.366l2.394-2.4-.809-.806a.536.536,0,0,1,.379-.915h2.5A.534.534,0,0,1,10,2.786v2.5a.536.536,0,0,1-.915.379l-.808-.808L5.883,7.25l2.395,2.4.808-.808A.535.535,0,0,1,10,9.214Z" transform="translate(0 -2.25)"/>
</svg>
