<svg xmlns="http://www.w3.org/2000/svg" width="13" height="13" viewBox="0 0 13 13">
  <path id="Icon_awesome-expand" data-name="Icon awesome-expand" d="M0,6.545v-3.6a.7.7,0,0,1,.7-.7h3.6a.349.349,0,0,1,.348.348V3.759a.349.349,0,0,1-.348.348H1.857V6.545a.349.349,0,0,1-.348.348H.348A.349.349,0,0,1,0,6.545ZM8.357,2.6V3.759a.349.349,0,0,0,.348.348h2.438V6.545a.349.349,0,0,0,.348.348h1.161A.349.349,0,0,0,13,6.545v-3.6a.7.7,0,0,0-.7-.7h-3.6A.349.349,0,0,0,8.357,2.6Zm4.295,8.009H11.491a.349.349,0,0,0-.348.348v2.437H8.705a.349.349,0,0,0-.348.348V14.9a.349.349,0,0,0,.348.348h3.6a.7.7,0,0,0,.7-.7v-3.6A.349.349,0,0,0,12.652,10.607ZM4.643,14.9V13.741a.349.349,0,0,0-.348-.348H1.857V10.955a.349.349,0,0,0-.348-.348H.348A.349.349,0,0,0,0,10.955v3.6a.7.7,0,0,0,.7.7h3.6A.349.349,0,0,0,4.643,14.9Z" transform="translate(0 -2.25)" fill="#550073"/>
</svg>
