<?xml version="1.0" encoding="UTF-8" standalone="no"?> <svg xmlns="http://www.w3.org/2000/svg" viewBox="0 0 64 64"><g id="Layer_64" data-name="Layer 64"><path d="M32,7.18c-11.43,0-23.57,3.38-23.7,9.66,0,0,0,.05,0,.1V51.55c0,6.34,12.22,9.76,23.71,9.76s23.71-3.42,23.71-9.76V16.94C55.71,10.6,43.49,7.18,32,7.18ZM53.21,34.25c0,3.43-8.71,7.25-21.21,7.25s-21.21-3.82-21.21-7.25V21.49C15,24.9,23.66,26.7,32,26.7s17-1.8,21.21-5.21ZM32,9.68c12.5,0,21.21,3.82,21.21,7.26S44.5,24.2,32,24.2s-21.21-3.83-21.21-7.26S19.5,9.68,32,9.68Zm0,49.13c-12.5,0-21.21-3.82-21.21-7.26V38.8C15,42.2,23.66,44,32,44s17-1.8,21.21-5.2V51.55C53.21,55,44.5,58.81,32,58.81Z"/></g></svg>